<svg width="120" height="120" viewBox="0 0 120 120" fill="none" xmlns="http://www.w3.org/2000/svg">
<path d="M111.606 29.9566L89.3228 17.0496L82.2826 21.1275V12.907L59.9999 0L37.7172 12.9068V21.0434L30.677 16.9655L8.39404 29.8723V42.4338H11.9073V33.1249L28.9201 42.9792V63.7139L11.9073 53.8594V45.9469H8.39404V55.8841L15.4267 59.9576L8.39428 64.0313V90.0434L30.6772 102.95L37.7174 98.8725V107.093L59.9999 120L82.2826 107.093V98.9564L89.3228 103.034L111.606 90.1275V81.0799H108.092V88.1023L91.0796 97.9566V77.2219L108.092 67.3678V77.5666H111.606V64.1156L104.573 60.0422L111.606 55.9688V29.9566ZM105.647 30.5653L89.3228 40.0207L72.999 30.5651L89.3228 21.1097L105.647 30.5653ZM59.9999 91.1454L43.6759 81.6898L48.2547 79.0376L59.9999 85.8408L71.7451 79.0376L76.3239 81.6898L59.9999 91.1454ZM49.4465 33.1247V40.128L37.7172 46.9219V60.6532L32.4336 63.7137V42.979L49.4465 33.1247ZM59.9999 38.0752L76.3239 47.5308L59.9999 56.9862L43.6757 47.5305L59.9999 38.0752ZM41.2304 50.1745L58.243 60.0288V80.7635L41.2304 70.909V50.1745ZM61.7565 80.7633V60.0286L78.7691 50.1743V70.9088L61.7565 80.7633ZM70.5533 40.128V33.2088L87.5659 43.0631V63.7978L82.2824 60.7371V46.9219L70.5533 40.128ZM67.04 29.9564V38.093L61.7565 35.0325V26.0133L78.7691 16.1592V23.1623L67.04 29.9564ZM76.3239 13.5155L59.9999 22.9709L43.6759 13.5155L59.9999 4.06008L76.3239 13.5155ZM41.2304 16.1592L58.243 26.0135V35.0327L52.9595 38.093V29.8723L41.2304 23.0784V16.1592ZM47.001 30.4809L30.6772 39.9366L14.353 30.4809L30.6772 21.0255L47.001 30.4809ZM30.677 68.7912L37.7172 64.7133V70.0177L30.677 74.0958L14.353 64.6399L18.9318 61.988L30.677 68.7912ZM11.9076 67.2834L28.9204 77.138V97.8727L11.9076 88.0181V67.2834ZM32.4336 97.8727V77.138L38.7046 73.5056L44.7498 77.0072L37.7172 81.0806V94.812L32.4336 97.8727ZM41.2304 84.3333L58.243 94.1878V114.922L41.2304 105.068V84.3333ZM61.7565 114.922V94.1878L78.7691 84.3335V105.068L61.7565 114.922ZM75.2502 77.0074L81.2228 73.548L87.5661 77.2223V97.957L82.2826 94.8966V81.0813L75.2502 77.0074ZM105.647 64.7243L89.3228 74.1797L82.2826 70.1016V64.7977L89.3228 68.8755L101.068 62.0723L105.647 64.7243ZM91.0794 63.798V43.0631L108.092 33.2091V53.9435L91.0794 63.798Z" fill="white"/>
</svg>
