<svg width="120" height="120" viewBox="0 0 120 120" fill="none" xmlns="http://www.w3.org/2000/svg">
<path d="M22.2817 52.8623V81.7089L47.3688 96.1928V67.3462L22.2817 52.8623ZM41.9835 68.3018L25.8021 77.6442V58.9593L41.9835 68.3018ZM27.5622 80.6927L43.8487 71.2896V90.0956L27.5622 80.6927Z" fill="white"/>
<path d="M72.6313 96.1928L97.7184 81.7089V52.8623L72.6313 67.3462V96.1928ZM76.1514 71.2898L92.4379 80.6929L76.1514 90.096V71.2898ZM94.1981 77.6442L78.0166 68.3018L94.1981 58.9593V77.6442Z" fill="white"/>
<path d="M59.9151 0L8.021 30.1702V89.9271L59.9166 120L96.0005 99.158L94.2398 96.1099L61.6781 114.917V61.155L108.459 33.9809V87.8967L97.7602 94.0762L99.5208 97.1243L111.979 89.9285V30.0724L59.9151 0ZM11.5411 34.2321L20.3154 39.3L22.076 36.252L13.2914 31.1782L59.9208 4.06852L106.565 31.0102L59.9154 58.1079L25.5961 38.2852L23.8355 41.3332L58.1578 61.1578V114.912L11.5411 87.8984V34.2321Z" fill="white"/>
<path d="M84.7673 31.0873L59.9238 16.6016L34.7505 31.0873L59.9238 45.5729L84.7673 31.0873ZM61.6781 40.4755V21.6992L77.7787 31.0871L61.6781 40.4755ZM58.1578 21.6791V40.4956L41.8082 31.0873L58.1578 21.6791Z" fill="white"/>
</svg>
