<svg width="120" height="120" viewBox="0 0 120 120" fill="none" xmlns="http://www.w3.org/2000/svg">
<path d="M106.743 0L77.6085 0.000234375V3.52195L100.758 3.52172L60.2472 44.3965L19.2763 3.52219L74.0868 3.52195V0.000234375L13.2573 0.00046875V17.8427L23.0704 27.6326H13.2573V45.4748L23.0704 55.2647H13.2573V73.107L60.2613 120L85.9024 94.1285L83.4009 91.6495L62.0149 113.228V102.88L103.221 61.3031V71.6513L86.2068 88.8185L88.7083 91.2975L106.743 73.1006V55.2642H97.0345L106.743 45.4685V27.6321H97.0345L106.743 17.8364V0ZM16.779 6.00516L58.4934 47.6213V57.9977L16.779 16.3819V6.00516ZM16.779 61.2694L58.4934 102.885V113.262L16.779 71.6461V61.2694ZM100.758 58.7859L60.2472 99.6607L19.2763 58.7864H26.6003L60.2613 92.3679L93.5442 58.7859H100.758ZM62.0151 85.5956V75.2475L103.221 33.671V44.0191L62.0151 85.5956ZM100.758 31.1538L60.2472 72.0286L42.7848 54.6075L40.2977 57.1005L58.4936 75.2534V85.6298L16.779 44.014V33.6373L37.6267 54.4359L40.1139 51.9429L19.2763 31.1543H26.6003L60.2613 64.7358L93.5442 31.1538H100.758ZM62.0151 57.9635V47.6154L103.221 6.03891V16.387L62.0151 57.9635Z" fill="white"/>
<path d="M33.5879 7.04395H37.1096V10.5657H33.5879V7.04395Z" fill="white"/>
<path d="M40.6313 7.04395H44.1531V10.5657H40.6313V7.04395Z" fill="white"/>
</svg>
