<svg width="100" height="100" viewBox="0 0 100 100" fill="none" xmlns="http://www.w3.org/2000/svg">
<path d="M33.6808 98.9593C42.6891 98.9593 50.0002 91.6481 50.0002 82.6398V66.3203H33.6808C24.6725 66.3203 17.3613 73.6315 17.3613 82.6398C17.3613 91.6481 24.6725 98.9593 33.6808 98.9593Z" fill="#0ACF83"/>
<path d="M17.3613 49.9991C17.3613 40.9907 24.6725 33.6797 33.6808 33.6797H50.0002V66.3185H33.6808C24.6725 66.3185 17.3613 59.0074 17.3613 49.9991Z" fill="#A259FF"/>
<path d="M17.3613 17.3605C17.3613 8.35213 24.6725 1.04102 33.6808 1.04102H50.0002V33.6799H33.6808C24.6725 33.6799 17.3613 26.3688 17.3613 17.3605Z" fill="#F24E1E"/>
<path d="M50 1.04102H66.3195C75.3278 1.04102 82.6389 8.35213 82.6389 17.3605C82.6389 26.3688 75.3278 33.6799 66.3195 33.6799H50V1.04102Z" fill="#FF7262"/>
<path d="M82.6389 49.9991C82.6389 59.0074 75.3278 66.3185 66.3195 66.3185C57.3111 66.3185 50 59.0074 50 49.9991C50 40.9907 57.3111 33.6797 66.3195 33.6797C75.3278 33.6797 82.6389 40.9907 82.6389 49.9991Z" fill="#1ABCFE"/>
</svg>
