<svg width="100" height="100" viewBox="0 0 100 100" fill="none" xmlns="http://www.w3.org/2000/svg">
<path fill-rule="evenodd" clip-rule="evenodd" d="M100 35C100 40.5208 95.4083 45 89.7417 45C84.9667 45 80.95 41.8125 79.8083 37.5H65.4917C62.9833 37.5 60.8458 39.2667 60.4333 41.6792L60.0125 44.1458C59.6185 46.4264 58.4394 48.4974 56.6792 50C58.3958 51.475 59.6125 53.5167 60.0125 55.8542L60.4292 58.3208C60.6445 59.5034 61.2713 60.5717 62.1986 61.3365C63.1259 62.1014 64.2939 62.5135 65.4958 62.5H69.5583C70.6958 58.1875 74.7125 55 79.4917 55C85.1583 55 89.7458 59.4792 89.7458 65C89.7458 70.5208 85.15 75 79.4917 75C74.7125 75 70.7 71.8125 69.5583 67.5H65.4958C60.4792 67.5 56.2042 63.9667 55.3792 59.1458L54.9583 56.6792C54.7432 55.498 54.1177 54.4308 53.1921 53.6662C52.2665 52.9015 51.1005 52.4884 49.9 52.5H45.7083C44.425 56.6 40.5167 59.5833 35.8917 59.5833C31.2667 59.5833 27.3583 56.6 26.0792 52.5H20.0708C18.7875 56.6 14.8792 59.5833 10.2583 59.5833C4.59167 59.5833 0 55.1042 0 49.5833C0 44.0625 4.59167 39.5833 10.2583 39.5833C15.1875 39.5833 19.3083 42.9792 20.2917 47.5H25.8625C26.8458 42.9792 30.9667 39.5833 35.8958 39.5833C40.8292 39.5833 44.9458 42.9792 45.9292 47.5H49.8958C52.4 47.5 54.5417 45.7333 54.95 43.3208L55.375 40.8542C56.2 36.0333 60.4792 32.5 65.4917 32.5H79.8083C80.95 28.1875 84.9667 25 89.7417 25C95.4083 25 100 29.4792 100 35ZM94.875 35C94.875 37.7625 92.575 40 89.7417 40C86.9083 40 84.6167 37.7625 84.6167 35C84.6167 32.2375 86.9083 30 89.7417 30C92.575 30 94.8708 32.2375 94.8708 35H94.875ZM10.2542 54.5833C13.0875 54.5833 15.3792 52.3458 15.3792 49.5833C15.3792 46.8208 13.0875 44.5833 10.2542 44.5833C7.42083 44.5833 5.125 46.8208 5.125 49.5833C5.125 52.3458 7.42083 54.5833 10.2542 54.5833ZM35.8917 54.5833C38.725 54.5833 41.0208 52.3458 41.0208 49.5833C41.0208 46.8208 38.7292 44.5833 35.8958 44.5833C33.0625 44.5833 30.7667 46.8208 30.7667 49.5833C30.7667 52.3458 33.0583 54.5833 35.8917 54.5833ZM79.4833 70C82.3167 70 84.6083 67.7625 84.6083 65C84.6083 62.2375 82.3167 60 79.4833 60C76.65 60 74.3583 62.2375 74.3583 65C74.3583 67.7625 76.65 70 79.4833 70Z" fill="#EA4B71"/>
</svg>
