<svg width="99" height="100" viewBox="0 0 99 100" fill="none" xmlns="http://www.w3.org/2000/svg">
<g clip-path="url(#clip0_568_31)">
<path d="M96.6388 47.5514C97.7228 49.9685 98.4108 52.5524 98.6922 55.1884C98.9632 57.8243 98.8277 60.4916 98.2648 63.0858C97.7124 65.6801 96.7535 68.1702 95.4193 70.4624C94.5438 71.9939 93.5119 73.4317 92.3237 74.7549C91.1459 76.0677 89.8326 77.2555 88.4046 78.2973C86.9662 79.3392 85.4341 80.2144 83.8081 80.9333C82.1925 81.6418 80.504 82.1836 78.7737 82.5378C77.9607 85.0592 76.7517 87.4451 75.1882 89.5914C73.6352 91.7376 71.7486 93.6235 69.6014 95.1759C67.4543 96.7387 65.0778 97.9473 62.5555 98.7599C60.0331 99.583 57.3961 99.9894 54.7382 99.9894C52.9767 99.9998 51.2048 99.8122 49.4745 99.458C47.7547 99.0933 46.0662 98.5411 44.4506 97.8222C42.8351 97.1033 41.3029 96.2073 39.8749 95.1654C38.4574 94.1236 37.1441 92.9254 35.9767 91.6022C33.3709 92.1648 30.7026 92.3003 28.0656 92.0294C25.4286 91.7481 22.8436 91.0604 20.4151 89.9769C17.9969 88.9037 15.756 87.4451 13.786 85.6635C11.8161 83.8818 10.1379 81.7981 8.81422 79.5059C7.92826 77.9744 7.19865 76.3594 6.64623 74.682C6.09381 73.0046 5.729 71.275 5.54138 69.5143C5.35377 67.7639 5.36419 65.9927 5.55181 64.2319C5.73942 62.4816 6.12507 60.752 6.6775 59.0746C4.90558 57.1054 3.44635 54.8654 2.36235 52.4482C1.28878 50.0206 0.590435 47.4472 0.319436 44.8112C0.0380136 42.1752 0.183936 39.508 0.736358 36.9137C1.28878 34.3194 2.2477 31.8293 3.58185 29.5372C4.45739 28.0056 5.48927 26.5574 6.66707 25.2446C7.84488 23.9319 9.16861 22.7441 10.5966 21.7022C12.0245 20.6603 13.5671 19.7747 15.1827 19.0663C16.8087 18.3474 18.4972 17.816 20.2275 17.4618C21.0405 14.93 22.2495 12.5545 23.8026 10.4082C25.366 8.26192 27.2526 6.37611 29.3997 4.81328C31.5469 3.26088 33.9233 2.05229 36.4457 1.2292C38.9681 0.416534 41.6051 -0.000219094 44.263 0.0101997C46.0245 -0.000219094 47.7964 0.176901 49.5267 0.54156C51.2569 0.90622 52.9454 1.448 54.561 2.1669C56.1766 2.89622 57.7087 3.78182 59.1367 4.8237C60.5647 5.87601 61.878 7.06375 63.0453 8.38695C65.6407 7.83475 68.309 7.6993 70.946 7.97019C73.583 8.24108 76.1575 8.93914 78.5861 10.0123C81.0043 11.0958 83.2452 12.5441 85.2152 14.3257C87.1851 16.0969 88.8632 18.1702 90.187 20.4728C91.0729 21.9939 91.8025 23.6089 92.355 25.2967C92.9074 26.9742 93.2826 28.7037 93.4598 30.4645C93.6474 32.2252 93.6474 33.9964 93.4494 35.7572C93.2618 37.518 92.8761 39.2475 92.3237 40.925C94.106 42.8941 95.5548 45.1238 96.6388 47.5514ZM61.9092 92.0294C64.1815 91.0917 66.2452 89.706 67.9859 87.966C69.7265 86.2261 71.1128 84.1631 72.0509 81.8814C72.9889 79.6101 73.4788 77.1721 73.4788 74.7133V51.4793C73.4719 51.4584 73.4649 51.4341 73.458 51.4063C73.451 51.3855 73.4406 51.3647 73.4267 51.3438C73.4128 51.323 73.3954 51.3056 73.3746 51.2917C73.3537 51.2709 73.3329 51.257 73.312 51.25L64.9006 46.3949V74.4632C64.9006 74.7445 64.859 75.0362 64.786 75.3071C64.713 75.5884 64.6088 75.8489 64.4629 76.099C64.317 76.349 64.1502 76.5782 63.9417 76.7762C63.7391 76.9781 63.5114 77.1532 63.2642 77.2971L43.3458 88.7891C43.179 88.8933 42.8976 89.0392 42.7517 89.1225C43.5751 89.8206 44.4715 90.4353 45.4095 90.9771C46.358 91.5188 47.3378 91.9773 48.3593 92.3524C49.3807 92.717 50.4335 92.9983 51.4966 93.1859C52.5702 93.3734 53.6542 93.4672 54.7382 93.4672C57.198 93.4672 59.637 92.9775 61.9092 92.0294ZM14.4739 76.2552C15.7143 78.3911 17.3507 80.2457 19.2998 81.746C21.2593 83.2463 23.4795 84.3403 25.8559 84.9758C28.2324 85.6114 30.7131 85.7781 33.152 85.4551C35.591 85.1321 37.9362 84.3403 40.0729 83.1108L60.2103 71.4938L60.2624 71.4417C60.2763 71.4279 60.2867 71.407 60.2937 71.3792C60.3076 71.3584 60.318 71.3376 60.3249 71.3167V61.523L36.0184 75.578C35.7682 75.7239 35.5077 75.8281 35.2367 75.9114C34.9552 75.9844 34.6738 76.0156 34.382 76.0156C34.1005 76.0156 33.8191 75.9844 33.5377 75.9114C33.2667 75.8281 32.9957 75.7239 32.7455 75.578L12.8271 64.0756C12.6499 63.9714 12.3893 63.8152 12.2434 63.7214C12.0558 64.7945 11.962 65.8781 11.962 66.9616C11.962 68.0452 12.0662 69.1288 12.2538 70.2019C12.4414 71.2646 12.7333 72.3169 13.0981 73.338C13.4733 74.359 13.9319 75.3384 14.4739 76.2761V76.2552ZM9.24157 32.8087C8.01165 34.9446 7.21949 37.2992 6.89638 39.7372C6.57327 42.1752 6.74003 44.6445 7.37584 47.0304C8.01165 49.4059 9.10607 51.6251 10.607 53.5839C12.1079 55.5322 13.9736 57.1679 16.0999 58.3974L36.2268 70.0248C36.2477 70.0317 36.272 70.0387 36.2998 70.0456H36.3728C36.4006 70.0456 36.4249 70.0387 36.4457 70.0248C36.4666 70.0178 36.4874 70.0074 36.5083 69.9935L44.9509 65.1175L20.6444 51.0938C20.4047 50.9479 20.1753 50.7708 19.9669 50.5728C19.7649 50.3703 19.5898 50.1427 19.4457 49.8956C19.3102 49.6455 19.1956 49.3851 19.1226 49.1038C19.0497 48.8329 19.008 48.5516 19.0184 48.2598V24.5987C17.9969 24.9737 17.0067 25.4322 16.0687 25.9739C15.1306 26.5261 14.2446 27.1513 13.4108 27.8493C12.5874 28.5474 11.8161 29.3184 11.1177 30.1519C10.4194 30.975 9.80441 31.871 9.26241 32.8087H9.24157ZM78.3776 48.8954C78.6278 49.0413 78.8571 49.208 79.0656 49.4163C79.2636 49.6143 79.4408 49.8435 79.5867 50.0936C79.7222 50.3436 79.8369 50.6145 79.9098 50.8854C79.9724 51.1667 80.0141 51.448 80.0036 51.7397V75.4009C83.3494 74.1715 86.2679 72.0148 88.4255 69.1809C90.5935 66.3469 91.8963 62.9608 92.1986 59.4184C92.5009 55.876 91.7921 52.3128 90.1453 49.1559C88.4984 45.999 85.9865 43.3734 82.9013 41.6022L62.7743 29.9748C62.7535 29.9678 62.7292 29.9609 62.7014 29.9539H62.6284C62.6076 29.9609 62.5833 29.9678 62.5555 29.9748C62.5346 29.9817 62.5138 29.9921 62.4929 30.006L54.0919 34.8612L78.3985 48.8954H78.3776ZM86.7682 36.2886H86.7578V36.299L86.7682 36.2886ZM86.7578 36.2782C87.3623 32.7774 86.9558 29.1725 85.58 25.8906C84.2146 22.6087 81.9319 19.7852 79.0135 17.7431C76.095 15.7114 72.6554 14.5445 69.1011 14.3882C65.5365 14.2423 62.0135 15.1071 58.9282 16.8783L38.8013 28.4953C38.7805 28.5092 38.7631 28.5266 38.7492 28.5474L38.7075 28.6099C38.7006 28.6307 38.6936 28.6551 38.6867 28.6828C38.6797 28.7037 38.6763 28.728 38.6763 28.7558V38.4661L62.9828 24.432C63.233 24.2861 63.504 24.1819 63.775 24.0986C64.0564 24.0256 64.3378 23.9944 64.6192 23.9944C64.9111 23.9944 65.1925 24.0256 65.4739 24.0986C65.7449 24.1819 66.0055 24.2861 66.2556 24.432L86.1741 35.9344C86.3513 36.0385 86.6119 36.1844 86.7578 36.2782ZM34.0901 25.5259C34.0901 25.2446 34.1318 24.9633 34.2048 24.682C34.2777 24.4111 34.382 24.1402 34.5279 23.8902C34.6738 23.6505 34.8406 23.4213 35.049 23.213C35.2471 23.015 35.4764 22.8379 35.7265 22.7024L55.645 11.2104C55.8326 11.0958 56.0932 10.95 56.2391 10.877C53.5083 8.59532 50.1729 7.13668 46.6395 6.68867C43.1061 6.23025 39.5205 6.79286 36.2998 8.30359C33.0687 9.81433 30.3378 12.2211 28.4304 15.2217C26.523 18.2327 25.5119 21.7126 25.5119 25.2759V48.5099C25.5189 48.5377 25.5258 48.562 25.5328 48.5828C25.5397 48.6037 25.5502 48.6245 25.5641 48.6453C25.578 48.6662 25.5953 48.687 25.6162 48.7078C25.6301 48.7217 25.6509 48.7356 25.6787 48.7495L34.0901 53.6047V25.5259ZM38.6554 56.2302L49.485 62.4815L60.3145 56.2302V43.7381L49.4954 37.4868L38.6658 43.7381L38.6554 56.2302Z" fill="black"/>
</g>
<defs>
<clipPath id="clip0_568_31">
<rect width="99" height="100" fill="white"/>
</clipPath>
</defs>
</svg>
