<svg width="122" height="100" viewBox="0 0 122 100" fill="none" xmlns="http://www.w3.org/2000/svg">
<g clip-path="url(#clip0_572_69)">
<path fill-rule="evenodd" clip-rule="evenodd" d="M102.055 7.08685L104.626 10.4856C105.301 11.3827 105.132 12.6684 104.239 13.3462L101.508 15.4293C102.005 16.7549 102.323 18.1703 102.452 19.6155L105.559 20.0441C106.671 20.1936 107.446 21.2302 107.297 22.3465L106.721 26.5825C106.572 27.6988 105.539 28.4862 104.427 28.3268L101.032 27.8583C100.426 29.1839 99.6519 30.3999 98.7385 31.4863L100.645 33.998C101.32 34.8951 101.141 36.1808 100.248 36.8586L96.862 39.4401C95.9684 40.1178 94.6877 39.9384 94.0125 39.0514L91.9375 36.3104C90.6071 36.8088 89.2072 37.1277 87.7577 37.2573L87.3307 40.377C87.1818 41.4933 86.1493 42.2707 85.0373 42.1212L80.8177 41.5431C79.7057 41.3936 78.9313 40.3571 79.0803 39.2407L79.5469 35.832C78.2363 35.224 77.0151 34.4466 75.933 33.5396L73.431 35.4433C72.5374 36.121 71.2567 35.9516 70.5815 35.0546L68.0101 31.6558C67.335 30.7587 67.5038 29.473 68.3973 28.7952L71.1276 26.7121C70.6312 25.3765 70.3135 23.9711 70.1844 22.5259L67.0768 22.0973C65.9649 21.9478 65.1805 20.9112 65.3394 19.7949L65.9152 15.5589C66.0741 14.4426 67.0967 13.6651 68.2087 13.8146L71.6042 14.2831C72.2098 12.9674 72.9842 11.7415 73.8877 10.6551L71.9914 8.14336C71.3163 7.25629 71.485 5.97053 72.3786 5.29277L75.7642 2.71129C76.6577 2.03352 77.9385 2.20296 78.6136 3.1L80.6886 5.84096C82.0091 5.3426 83.419 5.02366 84.8586 4.89408L85.2855 1.77438C85.4344 0.658063 86.467 -0.129339 87.5789 0.0201677L91.7985 0.59826C92.9105 0.747767 93.6948 1.78435 93.536 2.90066L93.0693 6.30941C94.3898 6.91741 95.6011 7.69484 96.6932 8.61182L99.1952 6.7081C100.089 6.02037 101.369 6.18981 102.055 7.08685ZM29.4582 66.8995V50.4537H37.8973C39.466 50.4537 40.6574 50.5833 41.4815 50.8624C42.3055 51.1315 42.9806 51.6299 43.4771 52.3575C43.9834 53.095 44.2416 53.9821 44.2416 55.0286C44.2416 55.9356 44.043 56.733 43.6558 57.3908C43.2686 58.0586 42.7324 58.5969 42.0573 59.0055C41.6304 59.2647 41.0347 59.4839 40.2801 59.6534C40.8858 59.8627 41.3226 60.0521 41.5907 60.2614C41.7793 60.4009 42.0474 60.69 42.3949 61.1285C42.7424 61.5671 42.9806 61.9159 43.0998 62.1551L45.562 66.9094H39.8433L37.1428 61.896C36.7953 61.2481 36.4974 60.8195 36.2293 60.6302C35.862 60.381 35.445 60.2514 34.9883 60.2514H34.5415V66.9094H29.4582V66.8995ZM47.3094 95.535H37.8576L36.4974 100H27.9789L38.1356 72.8997H47.2697L57.3867 100H48.6498L47.3094 95.535ZM45.5422 89.6643L42.5934 79.9165L39.6348 89.6643H45.5422ZM59.3526 72.8997H73.2324C76.2606 72.8997 78.5243 73.6173 80.0234 75.0625C81.5226 76.5078 82.2772 78.5709 82.2772 81.2322C82.2772 83.9731 81.4531 86.116 79.815 87.6609C78.1768 89.2059 75.6649 89.9733 72.2992 89.9733H67.7222V100H59.3526V72.8997ZM67.7222 84.4814H69.7774C71.3957 84.4814 72.5374 84.2024 73.1927 83.6342C73.848 83.0761 74.1756 82.3485 74.1756 81.4813C74.1756 80.6341 73.8877 79.9065 73.3218 79.3185C72.7559 78.7304 71.6836 78.4314 70.1149 78.4314H67.7222V84.4814ZM85.6528 72.8997H94.0225V100H85.6528V72.8997ZM34.5415 57.1317H36.6761C36.9045 57.1317 37.3513 57.052 38.0165 56.9025C38.354 56.8327 38.632 56.6632 38.8405 56.3842C39.0589 56.1051 39.1582 55.7861 39.1582 55.4273C39.1582 54.8991 38.9894 54.4804 38.6519 54.2014C38.3143 53.9123 37.6888 53.7728 36.7655 53.7728H34.5415V57.1317ZM46.535 50.4537H60.0873V53.9622H51.6183V56.5835H59.4717V59.9325H51.6183V63.1718H60.3355V66.8895H46.535V50.4537ZM61.5368 61.4574L66.3421 61.1584C66.4414 61.9458 66.6598 62.5339 66.9775 62.9425C67.5038 63.6004 68.2484 63.9392 69.2114 63.9392C69.9263 63.9392 70.4922 63.7698 70.8794 63.4309C71.2666 63.092 71.4652 62.6933 71.4652 62.2448C71.4652 61.8162 71.2765 61.4375 70.9092 61.0986C70.5418 60.7597 69.6781 60.4507 68.3179 60.1418C66.1038 59.6434 64.5252 58.9756 63.5721 58.1483C62.619 57.3211 62.1424 56.2646 62.1424 54.9788C62.1424 54.1316 62.3906 53.3342 62.8771 52.5867C63.3636 51.8392 64.0983 51.2411 65.0812 50.8126C66.0641 50.384 67.4045 50.1747 69.1122 50.1747C71.207 50.1747 72.7956 50.5634 73.8976 51.3508C74.9898 52.1382 75.645 53.3741 75.8535 55.0884L71.0978 55.3775C70.9688 54.63 70.7007 54.0818 70.3036 53.7529C69.8965 53.414 69.3306 53.2445 68.6257 53.2445C68.0399 53.2445 67.5931 53.3741 67.2953 53.6233C66.9974 53.8725 66.8485 54.1814 66.8485 54.5403C66.8485 54.7994 66.9775 55.0286 67.2158 55.2479C67.4541 55.4572 68.0101 55.6665 68.9037 55.8559C71.1177 56.3343 72.7062 56.8227 73.6594 57.3111C74.6125 57.7995 75.3174 58.4075 75.7443 59.1351C76.1812 59.8527 76.3996 60.67 76.3996 61.5671C76.3996 62.6236 76.1117 63.5904 75.5259 64.4775C74.95 65.3645 74.1359 66.0423 73.0934 66.5008C72.051 66.9593 70.7404 67.1885 69.1519 67.1885C66.3719 67.1885 64.4359 66.6503 63.3636 65.5738C62.2914 64.4775 61.6857 63.112 61.5368 61.4574ZM77.1343 50.4537H92.5332V54.5203H87.3705V66.8995H82.307V54.5203H77.1343V50.4537ZM60.0972 11.4225C58.2803 11.283 56.4435 11.3029 54.6266 11.4823C49.037 12.0206 43.6061 14.0638 39.1185 17.5623C33.926 21.599 29.9844 27.639 28.4653 35.6426L27.9888 38.1444L25.5067 38.5829C23.0742 39.0115 20.8999 39.5996 18.9937 40.3471C17.147 41.0647 15.4989 41.9518 14.0593 42.9983C12.9076 43.8356 11.9147 44.7725 11.0708 45.7891C8.45965 48.9288 7.24838 52.8658 7.27817 56.8526C7.30795 60.8993 8.6185 64.9858 11.041 68.3447C11.9445 69.5906 12.987 70.7368 14.1784 71.7335C15.3897 72.7402 16.7498 73.5774 18.2788 74.2054C19.1426 74.5642 20.0659 74.8632 21.029 75.1024V82.5678C19.0433 82.2089 17.2165 81.6707 15.5088 80.9631C13.2551 80.0262 11.2595 78.8201 9.50213 77.345C7.83416 75.9496 6.37469 74.3648 5.13364 72.6405C1.82748 68.0556 0.0403751 62.4541 0.000661566 56.8726C-0.039052 51.2312 1.70834 45.6197 5.48113 41.0747C6.70232 39.5996 8.14194 38.244 9.79005 37.048C11.7062 35.6526 13.9004 34.4765 16.3825 33.5097C18.0902 32.8419 19.917 32.2837 21.8431 31.8352C24.0274 23.1239 28.6838 16.4161 34.6706 11.7614C40.2702 7.4058 47.0116 4.86418 53.9515 4.19639C57.5952 3.84754 61.2886 4.00701 64.9025 4.68477C64.8231 5.01369 64.7536 5.3426 64.7139 5.68149L64.7039 5.74129C64.6344 6.30941 64.6047 6.87754 64.6344 7.45563C63.87 7.75464 63.1551 8.16329 62.5098 8.66165L62.48 8.68159C61.5169 9.40918 60.7028 10.3461 60.0972 11.4225ZM112.628 30.5594C113.184 31.0677 113.72 31.596 114.247 32.1641C115.309 33.3103 116.312 34.606 117.255 36.0513C120.432 40.9551 122.06 47.5035 121.991 53.9123C121.921 60.2016 120.233 66.4609 116.778 71.0657C114.525 74.0658 111.635 76.5177 108.17 78.4613C105.798 79.7969 103.127 80.9033 100.218 81.8003V74.0758C101.786 73.4877 103.246 72.8299 104.586 72.0824C107.197 70.6172 109.332 68.8331 110.931 66.6902C113.413 63.3711 114.634 58.6766 114.683 53.8625C114.743 48.8092 113.512 43.7359 111.119 40.0481C110.434 38.9816 109.68 38.0248 108.885 37.1676C108.577 36.8387 108.27 36.5297 107.952 36.2307C108.002 35.7323 108.021 35.224 107.992 34.7157C108.756 34.4167 109.471 34.008 110.116 33.5097L110.146 33.4897C111.169 32.7023 112.023 31.7056 112.628 30.5594ZM87.4499 12.7581C92.0269 13.3861 95.2238 17.6221 94.5983 22.2169C93.9728 26.8118 89.7533 30.0311 85.1763 29.4032C80.5993 28.7753 77.3924 24.5393 78.0278 19.9444C78.6633 15.3496 82.8729 12.1302 87.4499 12.7581Z" fill="black"/>
</g>
<defs>
<clipPath id="clip0_572_69">
<rect width="122" height="100" fill="white"/>
</clipPath>
</defs>
</svg>
