<svg width="120" height="120" viewBox="0 0 120 120" fill="none" xmlns="http://www.w3.org/2000/svg">
<path d="M112.001 30.071L59.7511 0L46.0946 7.93617V14.1792L40.7053 11.0679L27.0462 19.0059V25.1974L21.6481 22.143L7.99902 30.075V89.9278L21.6875 97.8567L27.1329 94.7944V100.999L40.8748 108.933L46.3046 105.777V112.069L60.0856 120L96.0143 99.1887L94.2535 96.1484L61.8394 114.924V61.1529L108.487 34.0444V43.8415L70.1829 65.9789V78.2981L108.487 56.1607V65.873L70.1829 88.0102V100.329L108.487 78.192V87.9035L97.7667 94.113L99.5276 97.1534L112.001 89.9288V74.1368L106.62 71.01L112.001 67.9003V52.1053L106.62 48.9785L112.001 45.8688V30.071ZM49.6081 11.9899L82.6913 31.0905L79.0503 33.2062L49.6081 16.2077V11.9899ZM63.6427 42.1603L60.0017 44.276L30.5595 27.2777V23.0597L63.6427 42.1603ZM23.457 92.8308V54.8156L27.1329 56.9381V90.7636L23.457 92.8308ZM42.6286 103.85V65.8845L46.3046 68.0067V101.714L42.6286 103.85ZM49.8181 65.9782L39.1153 59.7991V103.86L30.6467 98.9707V54.9096L19.9439 48.7303V92.7865L11.5123 87.9028V34.1287L31.0142 45.3881L32.7708 42.3455L13.2605 31.0812L21.6626 26.1984L60.0075 48.3363L70.6521 42.1505L32.3077 20.0121L40.7112 15.1282L79.0561 37.2666L89.7007 31.0807L51.3563 8.94234L59.7598 4.05867L106.653 31.0467L60.0797 58.1121L36.3743 44.4258L34.6177 47.4684L58.3261 61.1562V114.934L49.8183 110.038V65.9782H49.8181ZM106.74 75.1437L73.6962 94.241V90.0377L103.114 73.0362L106.74 75.1437ZM106.74 53.1122L73.6962 72.2095V68.0063L103.114 51.0047L106.74 53.1122Z" fill="white"/>
</svg>
