<svg width="100" height="100" viewBox="0 0 100 100" fill="none" xmlns="http://www.w3.org/2000/svg">
<g clip-path="url(#clip0_570_48)">
<path d="M91.0566 5.89825C89.6681 9.22884 87.871 12.3739 85.7066 15.2612C81.0718 10.4687 75.523 6.65435 69.3884 4.04381C63.2537 1.43326 56.6578 0.0795205 49.9908 0.0626595C43.3239 0.0457985 36.7212 1.36616 30.5734 3.94564C24.4257 6.52512 18.8576 10.3113 14.1987 15.0803C9.53976 19.8493 5.88455 25.5042 3.44927 31.7105C1.014 37.9168 -0.151884 44.5485 0.0205959 51.2133C0.193076 57.878 1.70041 64.4405 4.45344 70.5126C7.20648 76.5846 11.1493 82.0429 16.0487 86.5645L17.9007 88.2107C24.9289 94.1381 33.4606 98.0046 42.5508 99.3819C51.641 100.759 60.9351 99.5939 69.4038 96.0147C77.8724 92.4355 85.1853 86.5822 90.5323 79.103C95.8794 71.6239 99.0521 62.8107 99.6991 53.6395C101.139 41.087 97.3328 25.0362 91.0566 5.89825ZM23.2516 86.9762C22.7226 87.6263 22.0127 88.1049 21.2117 88.3517C20.4107 88.5985 19.5545 88.6023 18.7514 88.3626C17.9482 88.123 17.2342 87.6506 16.6994 87.0052C16.1646 86.3599 15.8331 85.5705 15.7469 84.7368C15.6606 83.9031 15.8234 83.0625 16.2147 82.3213C16.606 81.5801 17.2083 80.9716 17.9453 80.5725C18.6824 80.1735 19.5212 80.0019 20.3558 80.0795C21.1903 80.157 21.9832 80.4802 22.6341 81.0082C23.4874 81.7309 24.0282 82.7557 24.1433 83.868C24.2584 84.9803 23.9389 86.0941 23.2516 86.9762ZM90.7478 72.057C78.5041 88.4166 52.1641 82.8603 35.3928 83.6837C35.3928 83.6837 32.4091 83.8895 29.4249 84.3007C29.4249 84.3007 30.557 83.7866 31.9974 83.272C43.8299 79.1566 49.3857 78.3332 56.5882 74.6291C70.067 67.7353 83.5457 52.6107 86.2207 36.9712C81.0762 51.9932 65.437 64.9574 51.2378 70.2049C41.4632 73.8062 23.8691 77.3045 23.8691 77.3045L23.1487 76.8928C11.2132 71.0278 10.802 45.0995 32.6145 36.7653C42.1837 33.0612 51.2378 35.1195 61.6299 32.6499C72.6391 30.0774 85.3978 21.8462 90.5424 11.0428C96.3041 28.4312 103.301 55.3887 90.7478 72.057Z" fill="#6DB33F"/>
</g>
<defs>
<clipPath id="clip0_570_48">
<rect width="100" height="100" fill="white"/>
</clipPath>
</defs>
</svg>
