<svg width="120" height="120" viewBox="0 0 120 120" fill="none" xmlns="http://www.w3.org/2000/svg">
<path d="M108.595 90.6241L98.7524 69.7348L95.574 71.2322L105.076 91.3987C104.927 94.511 102.661 97.4878 98.6518 99.817C90.4346 104.592 77.0066 105.15 67.6072 101.201V71.5648L81.6688 41.7202L93.9184 67.7182L97.0967 66.2208L83.3626 37.0713V13.9291C83.3628 6.11859 73.3581 0 60.586 0C47.814 0 37.8095 6.11859 37.8095 13.9291V38.8591H41.3232V21.4627C45.3264 25.3359 52.3857 27.8585 60.586 27.8585C68.7864 27.8585 75.8457 25.3359 79.8489 21.4627V37.3387L64.7994 69.2803L41.3232 55.6821V42.3731H37.8095V55.6088L11.3994 70.9064V103.721L39.5033 120L66.3165 104.469C70.9424 106.402 76.3431 107.357 81.7269 107.357C88.5196 107.357 95.2829 105.839 100.417 102.855C105.867 99.6703 108.751 95.4108 108.595 90.6241ZM60.586 24.3445C50.1446 24.3445 41.3232 19.5748 41.3232 13.9291C41.3232 8.28352 50.1446 3.51375 60.586 3.51375C71.0275 3.51375 79.8489 8.28352 79.8489 13.9291C79.8489 19.5748 71.0277 24.3445 60.586 24.3445ZM14.9132 73.9303L28.0813 81.5578L29.8424 78.517L17.5564 71.4007L39.5033 58.6882L61.4502 71.4009L39.5033 84.1134L33.3564 80.5523L31.5948 83.5931L37.7462 87.1563V114.922L14.9129 101.696V73.9303H14.9132ZM41.2602 114.922V87.1563L64.0932 73.9308V101.696L41.2602 114.922Z" fill="white"/>
<path d="M44.7739 31.5977H48.2877V35.1766H44.7739V31.5977Z" fill="white"/>
<path d="M51.8018 31.5977H55.3155V35.1766H51.8018V31.5977Z" fill="white"/>
</svg>
