<svg width="100" height="100" viewBox="0 0 100 100" fill="none" xmlns="http://www.w3.org/2000/svg">
<path d="M1.04102 30.7825C1.04102 30.7825 4.92237 30.2929 7.50993 32.5851C9.1071 33.9994 9.57261 36.253 9.57261 36.253L14.8568 56.8268L19.252 39.9883C19.6789 38.1985 20.451 35.985 21.6709 34.489C23.228 32.5835 26.3886 32.4631 26.7257 32.4631C27.0628 32.4631 30.2217 32.5835 31.7773 34.489C32.9972 35.985 33.7692 38.1969 34.1979 39.9883L38.5929 56.8268L43.8755 36.253C43.8755 36.253 44.3427 33.9994 45.9399 32.5851C48.5274 30.2929 52.4072 30.7825 52.4072 30.7825L42.288 69.2317C42.288 69.2317 38.9508 69.4741 37.2798 68.6184C35.0855 67.4949 34.0437 66.628 32.7147 61.3951C32.0429 58.7186 31.3795 56.0401 30.7242 53.3596L30.4754 52.3499C29.7739 49.4894 29.074 46.6402 28.5813 44.6578L28.3405 43.6947C28.119 42.8215 27.9665 42.234 27.912 42.0574C27.7627 41.5743 27.5845 40.4233 26.724 40.4233C25.883 40.4233 25.6887 41.5758 25.5362 42.0574C25.4801 42.234 25.3276 42.8199 25.1077 43.6947L24.8668 44.6578C24.3543 46.7178 23.846 48.7789 23.342 50.841L23.0948 51.8458C22.3174 55.0318 21.5309 58.2154 20.7351 61.3968C19.406 66.628 18.3627 67.4965 16.1683 68.6184C14.4974 69.4741 11.1602 69.2317 11.1602 69.2317L1.04102 30.7825ZM62.0351 37.16V38.5484L62.0383 61.7579C62.0206 66.5205 61.56 67.5783 59.5566 68.6747C57.9997 69.527 55.6175 69.2044 55.6175 69.2044V43.2051C55.6175 41.9001 56.0221 41.0445 57.5132 40.2772C58.4041 39.8181 59.234 39.4666 60.0976 38.9466C61.2775 38.2402 61.8761 37.4007 62.0078 37.2017L62.0351 37.16ZM65.2486 30.9109C65.2486 30.9109 70.4767 29.9848 73.0659 32.4358C74.5218 33.8147 76.1318 36.1647 76.4962 36.7073L76.5653 36.81L76.5733 36.8228L81.1321 43.6546C81.3519 44.0093 81.6409 44.3961 82.1032 44.3961C82.5638 44.3961 82.8545 44.0109 83.0759 43.6546L87.6331 36.8228L87.6411 36.81L87.7101 36.7073C88.0745 36.1647 89.6845 33.8147 91.1421 32.4343C93.7296 29.9848 98.9577 30.9094 98.9577 30.9094L86.5704 50.0689L98.9239 69.1658C98.9239 69.1658 93.5755 69.8818 90.9863 67.4306C89.3298 65.864 87.6331 63.3133 87.6331 63.3133L83.0743 56.4832C82.8544 56.1269 82.5638 55.74 82.1032 55.74C81.6409 55.74 81.352 56.1253 81.1304 56.4832L76.5733 63.3133C76.5733 63.3133 74.9697 65.864 73.3148 67.4306C70.7256 69.8818 65.2808 69.1658 65.2808 69.1658L77.6343 50.0689L65.2486 30.9109ZM62.0223 30.7392H62.0383C62.0383 33.2915 61.7975 34.8083 60.2565 35.9866C59.5411 36.5364 58.7523 36.9832 57.9129 37.3141C57.0618 37.646 56.2826 38.1388 55.6175 38.7651C55.6175 34.1165 56.2965 32.4327 58.1216 31.4358C59.2565 30.8163 61.1201 30.7456 61.7895 30.7392H62.0223Z" fill="black"/>
</svg>
