<svg width="100" height="100" viewBox="0 0 100 100" fill="none" xmlns="http://www.w3.org/2000/svg">
<path d="M7.99996 49.9985C7.99996 66.6223 17.6608 80.9885 31.6698 87.7964L11.636 32.9065C9.30575 38.1296 7.99996 43.9098 7.99996 49.9985ZM78.3502 47.8792C78.3502 42.6888 76.4858 39.0942 74.8866 36.2964C72.7578 32.8369 70.7623 29.9072 70.7623 26.4477C70.7623 22.5871 73.6904 18.9933 77.8148 18.9933C78.0009 18.9933 78.1776 19.0165 78.3589 19.0269C70.8869 12.1815 60.9321 8.00192 49.9981 8.00192C35.3259 8.00192 22.4173 15.5299 14.9078 26.932C15.8931 26.9616 16.8217 26.9824 17.6105 26.9824C22.0033 26.9824 28.8033 26.4494 28.8033 26.4494C31.0673 26.3159 31.3341 29.6411 29.0726 29.9089C29.0726 29.9089 26.7974 30.1766 24.2657 30.3092L39.5598 75.8004L48.7507 48.2356L42.2073 30.3076C39.9457 30.175 37.8032 29.9072 37.8032 29.9072C35.5401 29.7746 35.8054 26.3143 38.0685 26.4477C38.0685 26.4477 45.0043 26.9807 49.1311 26.9807C53.5232 26.9807 60.3239 26.4477 60.3239 26.4477C62.5894 26.3143 62.8556 29.6395 60.5932 29.9072C60.5932 29.9072 58.3132 30.175 55.7863 30.3076L70.9637 75.4544L75.1528 61.4558C76.9684 55.6469 78.3502 51.4745 78.3502 47.8792ZM50.735 53.6722L38.134 90.2881C41.8964 91.3942 45.8754 91.9991 49.9981 91.9991C54.8889 91.9991 59.579 91.1537 63.9448 89.6184C63.8322 89.4387 63.7299 89.2476 63.6459 89.0399L50.735 53.6722ZM86.8499 29.8489C87.0305 31.1867 87.1328 32.6227 87.1328 34.1675C87.1328 38.4293 86.3368 43.2202 83.9393 49.2105L71.1107 86.3013C83.5965 79.0202 91.9948 65.4931 91.9948 49.9993C91.9955 42.6975 90.1304 35.8313 86.8499 29.8489ZM49.9981 1.04297C23.0038 1.04297 1.04102 23.0043 1.04102 49.9985C1.04102 76.9959 23.0038 98.9565 49.9981 98.9565C76.9916 98.9565 98.9577 76.9959 98.9577 49.9985C98.9568 23.0043 76.9916 1.04297 49.9981 1.04297ZM49.9981 96.7124C24.2417 96.7124 3.28581 75.7565 3.28581 49.9985C3.28581 24.2421 24.2409 3.28777 49.9981 3.28777C75.7537 3.28777 96.7081 24.2421 96.7081 49.9985C96.7081 75.7565 75.7537 96.7124 49.9981 96.7124Z" fill="#01579B"/>
</svg>
