<svg width="120" height="120" viewBox="0 0 120 120" fill="none" xmlns="http://www.w3.org/2000/svg">
<path d="M117.619 97.4874L114.187 98.2299L115.305 103.4L88.0856 87.6744V56.9068L61.7557 41.6556V15.8466L65.4804 19.5713L67.9634 17.0881L60 9.125L52.0366 17.0881L54.5196 19.5713L58.2443 15.8466V41.6556L31.9144 56.9066V87.6746L4.695 103.4L5.81367 98.2299L2.38148 97.4874L0 108.494L11.0072 110.876L11.7497 107.444L6.63211 106.337L33.6691 90.7161L60 105.968L74.9262 97.3224L73.166 94.2838L61.7557 100.893V73.1457L84.574 59.9286V87.6758L76.6774 92.2496L78.4376 95.2883L86.3311 90.7161L113.368 106.337L108.25 107.444L108.993 110.876L120 108.494L117.619 97.4874ZM35.426 59.9286L48.5855 67.5512L50.3456 64.5125L38.0677 57.4009L60 44.6963L81.9323 57.4006L60 70.1049L53.857 66.5464L52.0969 69.5851L58.2443 73.146V100.893L35.426 87.6758V59.9286Z" fill="white"/>
<path d="M49.4526 54.4346H52.964V57.946H49.4526V54.4346Z" fill="white"/>
<path d="M56.5059 54.4346H60.0173V57.946H56.5059V54.4346Z" fill="white"/>
</svg>
